M48
; DRILL file {KiCad 7.0.6} date Mon Jun  3 18:18:50 2024
; FORMAT={-:-/ absolute / inch / decimal}
; #@! TF.CreationDate,2024-06-03T18:18:50-04:00
; #@! TF.GenerationSoftware,Kicad,Pcbnew,7.0.6
; #@! TF.FileFunction,Plated,1,2,PTH
FMAT,2
INCH
; #@! TA.AperFunction,Plated,PTH,ViaDrill
T1C0.0118
; #@! TA.AperFunction,Plated,PTH,ComponentDrill
T2C0.0236
; #@! TA.AperFunction,Plated,PTH,ComponentDrill
T3C0.0276
%
G90
G05
T1
X3.979Y-5.412
X3.989Y-6.126
X4.014Y-6.213
X4.026Y-5.92
X4.038Y-5.892
X4.071Y-5.552
X4.113Y-5.401
X4.122Y-5.779
X4.122Y-5.951
X4.147Y-5.931
X4.164Y-6.082
X4.188Y-5.673
X4.198Y-5.801
X4.203Y-5.391
X4.231Y-5.435
X4.232Y-5.462
X4.236Y-5.66
X4.237Y-5.491
X4.243Y-6.078
X4.257Y-5.518
X4.264Y-5.306
X4.2714Y-5.6826
X4.302Y-5.66
X4.303Y-5.2
X4.304Y-6.199
X4.347Y-5.527
X4.357Y-6.048
X4.367Y-6.148
X4.374Y-5.35
X4.387Y-6.038
X4.399Y-5.699
X4.4206Y-5.591
X4.422Y-5.512
X4.43Y-5.435
X4.444Y-5.19
X4.46Y-5.514
X4.492Y-5.641
X4.495Y-5.6044
X4.521Y-5.516
X4.522Y-5.63
X4.522Y-6.0041
X4.527Y-6.052
X4.528Y-5.484
X4.529Y-6.135
X4.546Y-5.555
X4.576Y-5.589
X4.579Y-5.557
X4.598Y-5.62
X4.614Y-5.189
X4.632Y-5.464
X4.639Y-5.289
X4.65Y-5.349
X4.658Y-5.445
X4.676Y-5.393
X4.676Y-5.424
X4.683Y-5.658
X4.688Y-5.451
X4.695Y-5.304
X4.734Y-5.736
X4.746Y-5.293
X4.7473Y-5.3305
X4.751Y-5.767
X4.757Y-5.452
X4.765Y-5.964
X4.7684Y-5.9318
X4.771Y-5.204
X4.786Y-5.654
X4.796Y-5.541
X4.8Y-5.448
X4.802Y-5.764
X4.814Y-5.63
X4.85Y-5.146
X4.853Y-6.1751
X4.927Y-6.201
X4.9445Y-6.0571
X4.96Y-6.201
X5.156Y-6.187
X5.187Y-6.037
X5.28Y-6.147
X5.317Y-5.2879
X5.391Y-5.3971
X5.3926Y-5.279
X5.3926Y-5.5152
X5.3926Y-5.6333
X5.3926Y-5.7514
X5.43Y-5.176
X5.469Y-6.182
X5.471Y-6.047
X5.4714Y-5.512
X5.473Y-5.278
X5.477Y-5.391
X5.488Y-5.9336
X5.4915Y-5.7445
X5.4939Y-5.6239
X5.497Y-5.807
X5.5017Y-5.4457
X5.5038Y-5.5628
X5.605Y-5.112
X5.792Y-6.1751
X5.794Y-6.043
X5.895Y-6.203
X5.918Y-6.117
X5.934Y-6.182
X5.9772Y-5.7598
X5.9772Y-5.6418
X5.9778Y-5.5242
X6.016Y-5.88
X6.0568Y-5.279
X6.0568Y-5.5152
X6.0568Y-5.6333
X6.0568Y-5.7514
X6.058Y-5.141
X6.0631Y-5.4102
X6.132Y-5.73
X6.132Y-5.841
X6.133Y-5.965
X6.134Y-5.613
X6.137Y-5.268
X6.138Y-5.38
X6.144Y-5.454
T3
X3.9848Y-5.5452
X3.9848Y-5.7728
X5.846Y-5.127
X5.9129Y-5.127
T2
G00X3.8281Y-5.4889
M15
G01X3.8517Y-5.4889
M16
G05
G00X3.8281Y-5.8291
M15
G01X3.8517Y-5.8291
M16
G05
G00X3.9879Y-5.4889
M15
G01X4.0234Y-5.4889
M16
G05
G00X3.9879Y-5.8291
M15
G01X4.0234Y-5.8291
M16
G05
T0
M30
