%TF.GenerationSoftware,KiCad,Pcbnew,7.0.6*%
%TF.CreationDate,2024-06-03T18:18:50-04:00*%
%TF.ProjectId,V3,56332e6b-6963-4616-945f-706362585858,rev?*%
%TF.SameCoordinates,Original*%
%TF.FileFunction,Soldermask,Bot*%
%TF.FilePolarity,Negative*%
%FSLAX46Y46*%
G04 Gerber Fmt 4.6, Leading zero omitted, Abs format (unit mm)*
G04 Created by KiCad (PCBNEW 7.0.6) date 2024-06-03 18:18:50*
%MOMM*%
%LPD*%
G01*
G04 APERTURE LIST*
G04 Aperture macros list*
%AMRoundRect*
0 Rectangle with rounded corners*
0 $1 Rounding radius*
0 $2 $3 $4 $5 $6 $7 $8 $9 X,Y pos of 4 corners*
0 Add a 4 corners polygon primitive as box body*
4,1,4,$2,$3,$4,$5,$6,$7,$8,$9,$2,$3,0*
0 Add four circle primitives for the rounded corners*
1,1,$1+$1,$2,$3*
1,1,$1+$1,$4,$5*
1,1,$1+$1,$6,$7*
1,1,$1+$1,$8,$9*
0 Add four rect primitives between the rounded corners*
20,1,$1+$1,$2,$3,$4,$5,0*
20,1,$1+$1,$4,$5,$6,$7,0*
20,1,$1+$1,$6,$7,$8,$9,0*
20,1,$1+$1,$8,$9,$2,$3,0*%
G04 Aperture macros list end*
%ADD10R,1.000000X0.750000*%
%ADD11C,1.000000*%
%ADD12RoundRect,0.135000X0.135000X0.185000X-0.135000X0.185000X-0.135000X-0.185000X0.135000X-0.185000X0*%
%ADD13RoundRect,0.135000X-0.135000X-0.185000X0.135000X-0.185000X0.135000X0.185000X-0.135000X0.185000X0*%
%ADD14C,0.700000*%
%ADD15R,1.100000X0.550000*%
%ADD16R,1.100000X0.300000*%
%ADD17O,2.000000X1.100000*%
%ADD18O,1.800000X1.200000*%
%ADD19R,2.000000X2.000000*%
%ADD20RoundRect,0.218750X-0.218750X-0.256250X0.218750X-0.256250X0.218750X0.256250X-0.218750X0.256250X0*%
%ADD21RoundRect,0.140000X-0.140000X-0.170000X0.140000X-0.170000X0.140000X0.170000X-0.140000X0.170000X0*%
%ADD22RoundRect,0.150000X0.650000X0.150000X-0.650000X0.150000X-0.650000X-0.150000X0.650000X-0.150000X0*%
%ADD23RoundRect,0.135000X-0.185000X0.135000X-0.185000X-0.135000X0.185000X-0.135000X0.185000X0.135000X0*%
%ADD24R,0.900000X1.200000*%
%ADD25R,1.200000X1.300000*%
G04 APERTURE END LIST*
D10*
%TO.C,S6*%
X103101400Y-130865400D03*
X97101400Y-130865400D03*
X103101400Y-134615400D03*
X97101400Y-134615400D03*
%TD*%
%TO.C,S3*%
X142547600Y-151795000D03*
X136547600Y-151795000D03*
X142547600Y-155545000D03*
X136547600Y-155545000D03*
%TD*%
%TO.C,S2*%
X151869400Y-151896600D03*
X145869400Y-151896600D03*
X151869400Y-155646600D03*
X145869400Y-155646600D03*
%TD*%
D11*
%TO.C,TP5*%
X108102400Y-141960600D03*
%TD*%
%TO.C,TP4*%
X105689400Y-140004800D03*
%TD*%
%TO.C,TP3*%
X105689400Y-136254800D03*
%TD*%
D12*
%TO.C,R13*%
X104802400Y-144094200D03*
X103782400Y-144094200D03*
%TD*%
D13*
%TO.C,R3*%
X103731600Y-141833600D03*
X104751600Y-141833600D03*
%TD*%
%TO.C,R1*%
X103782400Y-145135600D03*
X104802400Y-145135600D03*
%TD*%
D14*
%TO.C,USB1*%
X101213900Y-146628600D03*
X101213900Y-140848600D03*
D15*
X102293900Y-146938600D03*
X102293900Y-146138600D03*
D16*
X102293900Y-145488600D03*
X102293900Y-144988600D03*
X102293900Y-144488600D03*
X102293900Y-143988600D03*
X102293900Y-143488600D03*
X102293900Y-142988600D03*
X102293900Y-142488600D03*
X102293900Y-141988600D03*
D15*
X102293900Y-141338600D03*
X102293900Y-140538600D03*
D17*
X101743900Y-148058600D03*
D18*
X97533900Y-148058600D03*
D17*
X101743900Y-139418600D03*
D18*
X97533900Y-139418600D03*
%TD*%
D12*
%TO.C,R11*%
X104802400Y-143052800D03*
X103782400Y-143052800D03*
%TD*%
D19*
%TO.C,J2*%
X112903000Y-153695400D03*
%TD*%
D20*
%TO.C,D1*%
X97434300Y-151485600D03*
X99009300Y-151485600D03*
%TD*%
D21*
%TO.C,C13*%
X108740000Y-134010400D03*
X109700000Y-134010400D03*
%TD*%
D22*
%TO.C,U4*%
X116350600Y-135788400D03*
X116350600Y-137058400D03*
X116350600Y-138328400D03*
X116350600Y-139598400D03*
X109150600Y-139598400D03*
X109150600Y-138328400D03*
X109150600Y-137058400D03*
X109150600Y-135788400D03*
%TD*%
D23*
%TO.C,R21*%
X100482400Y-155293600D03*
X100482400Y-156313600D03*
%TD*%
%TO.C,R7*%
X145110200Y-149453600D03*
X145110200Y-150473600D03*
%TD*%
D19*
%TO.C,J1*%
X117068600Y-153771600D03*
%TD*%
D13*
%TO.C,R16*%
X105052400Y-129540000D03*
X106072400Y-129540000D03*
%TD*%
D14*
%TO.C,SW1*%
X150188000Y-130225800D03*
X148488000Y-130225800D03*
D24*
X151638000Y-130225800D03*
X147038000Y-130225800D03*
D25*
X151008000Y-131765800D03*
X147658000Y-131765800D03*
%TD*%
D20*
%TO.C,D2*%
X97307200Y-156083000D03*
X98882200Y-156083000D03*
%TD*%
M02*
