%TF.GenerationSoftware,KiCad,Pcbnew,7.0.6*%
%TF.CreationDate,2024-06-03T18:18:50-04:00*%
%TF.ProjectId,V3,56332e6b-6963-4616-945f-706362585858,rev?*%
%TF.SameCoordinates,Original*%
%TF.FileFunction,Legend,Bot*%
%TF.FilePolarity,Positive*%
%FSLAX46Y46*%
G04 Gerber Fmt 4.6, Leading zero omitted, Abs format (unit mm)*
G04 Created by KiCad (PCBNEW 7.0.6) date 2024-06-03 18:18:50*
%MOMM*%
%LPD*%
G01*
G04 APERTURE LIST*
G04 Aperture macros list*
%AMRoundRect*
0 Rectangle with rounded corners*
0 $1 Rounding radius*
0 $2 $3 $4 $5 $6 $7 $8 $9 X,Y pos of 4 corners*
0 Add a 4 corners polygon primitive as box body*
4,1,4,$2,$3,$4,$5,$6,$7,$8,$9,$2,$3,0*
0 Add four circle primitives for the rounded corners*
1,1,$1+$1,$2,$3*
1,1,$1+$1,$4,$5*
1,1,$1+$1,$6,$7*
1,1,$1+$1,$8,$9*
0 Add four rect primitives between the rounded corners*
20,1,$1+$1,$2,$3,$4,$5,0*
20,1,$1+$1,$4,$5,$6,$7,0*
20,1,$1+$1,$6,$7,$8,$9,0*
20,1,$1+$1,$8,$9,$2,$3,0*%
G04 Aperture macros list end*
%ADD10C,0.100000*%
%ADD11R,1.000000X0.750000*%
%ADD12C,1.000000*%
%ADD13RoundRect,0.135000X0.135000X0.185000X-0.135000X0.185000X-0.135000X-0.185000X0.135000X-0.185000X0*%
%ADD14RoundRect,0.135000X-0.135000X-0.185000X0.135000X-0.185000X0.135000X0.185000X-0.135000X0.185000X0*%
%ADD15C,0.700000*%
%ADD16R,1.100000X0.550000*%
%ADD17R,1.100000X0.300000*%
%ADD18O,2.000000X1.100000*%
%ADD19O,1.800000X1.200000*%
%ADD20R,2.000000X2.000000*%
%ADD21RoundRect,0.218750X-0.218750X-0.256250X0.218750X-0.256250X0.218750X0.256250X-0.218750X0.256250X0*%
%ADD22RoundRect,0.140000X-0.140000X-0.170000X0.140000X-0.170000X0.140000X0.170000X-0.140000X0.170000X0*%
%ADD23RoundRect,0.150000X0.650000X0.150000X-0.650000X0.150000X-0.650000X-0.150000X0.650000X-0.150000X0*%
%ADD24RoundRect,0.135000X-0.185000X0.135000X-0.185000X-0.135000X0.185000X-0.135000X0.185000X0.135000X0*%
%ADD25R,0.900000X1.200000*%
%ADD26R,1.200000X1.300000*%
G04 APERTURE END LIST*
D10*
X101383543Y-129349200D02*
X101297829Y-129377771D01*
X101297829Y-129377771D02*
X101154971Y-129377771D01*
X101154971Y-129377771D02*
X101097829Y-129349200D01*
X101097829Y-129349200D02*
X101069257Y-129320628D01*
X101069257Y-129320628D02*
X101040686Y-129263485D01*
X101040686Y-129263485D02*
X101040686Y-129206342D01*
X101040686Y-129206342D02*
X101069257Y-129149200D01*
X101069257Y-129149200D02*
X101097829Y-129120628D01*
X101097829Y-129120628D02*
X101154971Y-129092057D01*
X101154971Y-129092057D02*
X101269257Y-129063485D01*
X101269257Y-129063485D02*
X101326400Y-129034914D01*
X101326400Y-129034914D02*
X101354971Y-129006342D01*
X101354971Y-129006342D02*
X101383543Y-128949200D01*
X101383543Y-128949200D02*
X101383543Y-128892057D01*
X101383543Y-128892057D02*
X101354971Y-128834914D01*
X101354971Y-128834914D02*
X101326400Y-128806342D01*
X101326400Y-128806342D02*
X101269257Y-128777771D01*
X101269257Y-128777771D02*
X101126400Y-128777771D01*
X101126400Y-128777771D02*
X101040686Y-128806342D01*
X100526400Y-128777771D02*
X100640685Y-128777771D01*
X100640685Y-128777771D02*
X100697828Y-128806342D01*
X100697828Y-128806342D02*
X100726400Y-128834914D01*
X100726400Y-128834914D02*
X100783542Y-128920628D01*
X100783542Y-128920628D02*
X100812114Y-129034914D01*
X100812114Y-129034914D02*
X100812114Y-129263485D01*
X100812114Y-129263485D02*
X100783542Y-129320628D01*
X100783542Y-129320628D02*
X100754971Y-129349200D01*
X100754971Y-129349200D02*
X100697828Y-129377771D01*
X100697828Y-129377771D02*
X100583542Y-129377771D01*
X100583542Y-129377771D02*
X100526400Y-129349200D01*
X100526400Y-129349200D02*
X100497828Y-129320628D01*
X100497828Y-129320628D02*
X100469257Y-129263485D01*
X100469257Y-129263485D02*
X100469257Y-129120628D01*
X100469257Y-129120628D02*
X100497828Y-129063485D01*
X100497828Y-129063485D02*
X100526400Y-129034914D01*
X100526400Y-129034914D02*
X100583542Y-129006342D01*
X100583542Y-129006342D02*
X100697828Y-129006342D01*
X100697828Y-129006342D02*
X100754971Y-129034914D01*
X100754971Y-129034914D02*
X100783542Y-129063485D01*
X100783542Y-129063485D02*
X100812114Y-129120628D01*
X140829743Y-150278800D02*
X140744029Y-150307371D01*
X140744029Y-150307371D02*
X140601171Y-150307371D01*
X140601171Y-150307371D02*
X140544029Y-150278800D01*
X140544029Y-150278800D02*
X140515457Y-150250228D01*
X140515457Y-150250228D02*
X140486886Y-150193085D01*
X140486886Y-150193085D02*
X140486886Y-150135942D01*
X140486886Y-150135942D02*
X140515457Y-150078800D01*
X140515457Y-150078800D02*
X140544029Y-150050228D01*
X140544029Y-150050228D02*
X140601171Y-150021657D01*
X140601171Y-150021657D02*
X140715457Y-149993085D01*
X140715457Y-149993085D02*
X140772600Y-149964514D01*
X140772600Y-149964514D02*
X140801171Y-149935942D01*
X140801171Y-149935942D02*
X140829743Y-149878800D01*
X140829743Y-149878800D02*
X140829743Y-149821657D01*
X140829743Y-149821657D02*
X140801171Y-149764514D01*
X140801171Y-149764514D02*
X140772600Y-149735942D01*
X140772600Y-149735942D02*
X140715457Y-149707371D01*
X140715457Y-149707371D02*
X140572600Y-149707371D01*
X140572600Y-149707371D02*
X140486886Y-149735942D01*
X140286885Y-149707371D02*
X139915457Y-149707371D01*
X139915457Y-149707371D02*
X140115457Y-149935942D01*
X140115457Y-149935942D02*
X140029742Y-149935942D01*
X140029742Y-149935942D02*
X139972600Y-149964514D01*
X139972600Y-149964514D02*
X139944028Y-149993085D01*
X139944028Y-149993085D02*
X139915457Y-150050228D01*
X139915457Y-150050228D02*
X139915457Y-150193085D01*
X139915457Y-150193085D02*
X139944028Y-150250228D01*
X139944028Y-150250228D02*
X139972600Y-150278800D01*
X139972600Y-150278800D02*
X140029742Y-150307371D01*
X140029742Y-150307371D02*
X140201171Y-150307371D01*
X140201171Y-150307371D02*
X140258314Y-150278800D01*
X140258314Y-150278800D02*
X140286885Y-150250228D01*
X150151543Y-150380400D02*
X150065829Y-150408971D01*
X150065829Y-150408971D02*
X149922971Y-150408971D01*
X149922971Y-150408971D02*
X149865829Y-150380400D01*
X149865829Y-150380400D02*
X149837257Y-150351828D01*
X149837257Y-150351828D02*
X149808686Y-150294685D01*
X149808686Y-150294685D02*
X149808686Y-150237542D01*
X149808686Y-150237542D02*
X149837257Y-150180400D01*
X149837257Y-150180400D02*
X149865829Y-150151828D01*
X149865829Y-150151828D02*
X149922971Y-150123257D01*
X149922971Y-150123257D02*
X150037257Y-150094685D01*
X150037257Y-150094685D02*
X150094400Y-150066114D01*
X150094400Y-150066114D02*
X150122971Y-150037542D01*
X150122971Y-150037542D02*
X150151543Y-149980400D01*
X150151543Y-149980400D02*
X150151543Y-149923257D01*
X150151543Y-149923257D02*
X150122971Y-149866114D01*
X150122971Y-149866114D02*
X150094400Y-149837542D01*
X150094400Y-149837542D02*
X150037257Y-149808971D01*
X150037257Y-149808971D02*
X149894400Y-149808971D01*
X149894400Y-149808971D02*
X149808686Y-149837542D01*
X149580114Y-149866114D02*
X149551542Y-149837542D01*
X149551542Y-149837542D02*
X149494400Y-149808971D01*
X149494400Y-149808971D02*
X149351542Y-149808971D01*
X149351542Y-149808971D02*
X149294400Y-149837542D01*
X149294400Y-149837542D02*
X149265828Y-149866114D01*
X149265828Y-149866114D02*
X149237257Y-149923257D01*
X149237257Y-149923257D02*
X149237257Y-149980400D01*
X149237257Y-149980400D02*
X149265828Y-150066114D01*
X149265828Y-150066114D02*
X149608685Y-150408971D01*
X149608685Y-150408971D02*
X149237257Y-150408971D01*
X108859543Y-140184971D02*
X108516686Y-140184971D01*
X108688114Y-140784971D02*
X108688114Y-140184971D01*
X108316685Y-140784971D02*
X108316685Y-140184971D01*
X108316685Y-140184971D02*
X108088114Y-140184971D01*
X108088114Y-140184971D02*
X108030971Y-140213542D01*
X108030971Y-140213542D02*
X108002400Y-140242114D01*
X108002400Y-140242114D02*
X107973828Y-140299257D01*
X107973828Y-140299257D02*
X107973828Y-140384971D01*
X107973828Y-140384971D02*
X108002400Y-140442114D01*
X108002400Y-140442114D02*
X108030971Y-140470685D01*
X108030971Y-140470685D02*
X108088114Y-140499257D01*
X108088114Y-140499257D02*
X108316685Y-140499257D01*
X107430971Y-140184971D02*
X107716685Y-140184971D01*
X107716685Y-140184971D02*
X107745257Y-140470685D01*
X107745257Y-140470685D02*
X107716685Y-140442114D01*
X107716685Y-140442114D02*
X107659543Y-140413542D01*
X107659543Y-140413542D02*
X107516685Y-140413542D01*
X107516685Y-140413542D02*
X107459543Y-140442114D01*
X107459543Y-140442114D02*
X107430971Y-140470685D01*
X107430971Y-140470685D02*
X107402400Y-140527828D01*
X107402400Y-140527828D02*
X107402400Y-140670685D01*
X107402400Y-140670685D02*
X107430971Y-140727828D01*
X107430971Y-140727828D02*
X107459543Y-140756400D01*
X107459543Y-140756400D02*
X107516685Y-140784971D01*
X107516685Y-140784971D02*
X107659543Y-140784971D01*
X107659543Y-140784971D02*
X107716685Y-140756400D01*
X107716685Y-140756400D02*
X107745257Y-140727828D01*
X106446543Y-138229171D02*
X106103686Y-138229171D01*
X106275114Y-138829171D02*
X106275114Y-138229171D01*
X105903685Y-138829171D02*
X105903685Y-138229171D01*
X105903685Y-138229171D02*
X105675114Y-138229171D01*
X105675114Y-138229171D02*
X105617971Y-138257742D01*
X105617971Y-138257742D02*
X105589400Y-138286314D01*
X105589400Y-138286314D02*
X105560828Y-138343457D01*
X105560828Y-138343457D02*
X105560828Y-138429171D01*
X105560828Y-138429171D02*
X105589400Y-138486314D01*
X105589400Y-138486314D02*
X105617971Y-138514885D01*
X105617971Y-138514885D02*
X105675114Y-138543457D01*
X105675114Y-138543457D02*
X105903685Y-138543457D01*
X105046543Y-138429171D02*
X105046543Y-138829171D01*
X105189400Y-138200600D02*
X105332257Y-138629171D01*
X105332257Y-138629171D02*
X104960828Y-138629171D01*
X106446543Y-134479171D02*
X106103686Y-134479171D01*
X106275114Y-135079171D02*
X106275114Y-134479171D01*
X105903685Y-135079171D02*
X105903685Y-134479171D01*
X105903685Y-134479171D02*
X105675114Y-134479171D01*
X105675114Y-134479171D02*
X105617971Y-134507742D01*
X105617971Y-134507742D02*
X105589400Y-134536314D01*
X105589400Y-134536314D02*
X105560828Y-134593457D01*
X105560828Y-134593457D02*
X105560828Y-134679171D01*
X105560828Y-134679171D02*
X105589400Y-134736314D01*
X105589400Y-134736314D02*
X105617971Y-134764885D01*
X105617971Y-134764885D02*
X105675114Y-134793457D01*
X105675114Y-134793457D02*
X105903685Y-134793457D01*
X105360828Y-134479171D02*
X104989400Y-134479171D01*
X104989400Y-134479171D02*
X105189400Y-134707742D01*
X105189400Y-134707742D02*
X105103685Y-134707742D01*
X105103685Y-134707742D02*
X105046543Y-134736314D01*
X105046543Y-134736314D02*
X105017971Y-134764885D01*
X105017971Y-134764885D02*
X104989400Y-134822028D01*
X104989400Y-134822028D02*
X104989400Y-134964885D01*
X104989400Y-134964885D02*
X105017971Y-135022028D01*
X105017971Y-135022028D02*
X105046543Y-135050600D01*
X105046543Y-135050600D02*
X105103685Y-135079171D01*
X105103685Y-135079171D02*
X105275114Y-135079171D01*
X105275114Y-135079171D02*
X105332257Y-135050600D01*
X105332257Y-135050600D02*
X105360828Y-135022028D01*
X106014885Y-143720228D02*
X105814885Y-144005942D01*
X105672028Y-143720228D02*
X105672028Y-144320228D01*
X105672028Y-144320228D02*
X105900599Y-144320228D01*
X105900599Y-144320228D02*
X105957742Y-144291657D01*
X105957742Y-144291657D02*
X105986313Y-144263085D01*
X105986313Y-144263085D02*
X106014885Y-144205942D01*
X106014885Y-144205942D02*
X106014885Y-144120228D01*
X106014885Y-144120228D02*
X105986313Y-144063085D01*
X105986313Y-144063085D02*
X105957742Y-144034514D01*
X105957742Y-144034514D02*
X105900599Y-144005942D01*
X105900599Y-144005942D02*
X105672028Y-144005942D01*
X106586313Y-143720228D02*
X106243456Y-143720228D01*
X106414885Y-143720228D02*
X106414885Y-144320228D01*
X106414885Y-144320228D02*
X106357742Y-144234514D01*
X106357742Y-144234514D02*
X106300599Y-144177371D01*
X106300599Y-144177371D02*
X106243456Y-144148800D01*
X106786314Y-144320228D02*
X107157742Y-144320228D01*
X107157742Y-144320228D02*
X106957742Y-144091657D01*
X106957742Y-144091657D02*
X107043457Y-144091657D01*
X107043457Y-144091657D02*
X107100600Y-144063085D01*
X107100600Y-144063085D02*
X107129171Y-144034514D01*
X107129171Y-144034514D02*
X107157742Y-143977371D01*
X107157742Y-143977371D02*
X107157742Y-143834514D01*
X107157742Y-143834514D02*
X107129171Y-143777371D01*
X107129171Y-143777371D02*
X107100600Y-143748800D01*
X107100600Y-143748800D02*
X107043457Y-143720228D01*
X107043457Y-143720228D02*
X106872028Y-143720228D01*
X106872028Y-143720228D02*
X106814885Y-143748800D01*
X106814885Y-143748800D02*
X106786314Y-143777371D01*
X104040000Y-140469028D02*
X103840000Y-140754742D01*
X103697143Y-140469028D02*
X103697143Y-141069028D01*
X103697143Y-141069028D02*
X103925714Y-141069028D01*
X103925714Y-141069028D02*
X103982857Y-141040457D01*
X103982857Y-141040457D02*
X104011428Y-141011885D01*
X104011428Y-141011885D02*
X104040000Y-140954742D01*
X104040000Y-140954742D02*
X104040000Y-140869028D01*
X104040000Y-140869028D02*
X104011428Y-140811885D01*
X104011428Y-140811885D02*
X103982857Y-140783314D01*
X103982857Y-140783314D02*
X103925714Y-140754742D01*
X103925714Y-140754742D02*
X103697143Y-140754742D01*
X104240000Y-141069028D02*
X104611428Y-141069028D01*
X104611428Y-141069028D02*
X104411428Y-140840457D01*
X104411428Y-140840457D02*
X104497143Y-140840457D01*
X104497143Y-140840457D02*
X104554286Y-140811885D01*
X104554286Y-140811885D02*
X104582857Y-140783314D01*
X104582857Y-140783314D02*
X104611428Y-140726171D01*
X104611428Y-140726171D02*
X104611428Y-140583314D01*
X104611428Y-140583314D02*
X104582857Y-140526171D01*
X104582857Y-140526171D02*
X104554286Y-140497600D01*
X104554286Y-140497600D02*
X104497143Y-140469028D01*
X104497143Y-140469028D02*
X104325714Y-140469028D01*
X104325714Y-140469028D02*
X104268571Y-140497600D01*
X104268571Y-140497600D02*
X104240000Y-140526171D01*
X103878971Y-146381800D02*
X103593257Y-146181800D01*
X103878971Y-146038943D02*
X103278971Y-146038943D01*
X103278971Y-146038943D02*
X103278971Y-146267514D01*
X103278971Y-146267514D02*
X103307542Y-146324657D01*
X103307542Y-146324657D02*
X103336114Y-146353228D01*
X103336114Y-146353228D02*
X103393257Y-146381800D01*
X103393257Y-146381800D02*
X103478971Y-146381800D01*
X103478971Y-146381800D02*
X103536114Y-146353228D01*
X103536114Y-146353228D02*
X103564685Y-146324657D01*
X103564685Y-146324657D02*
X103593257Y-146267514D01*
X103593257Y-146267514D02*
X103593257Y-146038943D01*
X103878971Y-146953228D02*
X103878971Y-146610371D01*
X103878971Y-146781800D02*
X103278971Y-146781800D01*
X103278971Y-146781800D02*
X103364685Y-146724657D01*
X103364685Y-146724657D02*
X103421828Y-146667514D01*
X103421828Y-146667514D02*
X103450400Y-146610371D01*
X96954371Y-143051343D02*
X97440085Y-143051343D01*
X97440085Y-143051343D02*
X97497228Y-143079914D01*
X97497228Y-143079914D02*
X97525800Y-143108486D01*
X97525800Y-143108486D02*
X97554371Y-143165628D01*
X97554371Y-143165628D02*
X97554371Y-143279914D01*
X97554371Y-143279914D02*
X97525800Y-143337057D01*
X97525800Y-143337057D02*
X97497228Y-143365628D01*
X97497228Y-143365628D02*
X97440085Y-143394200D01*
X97440085Y-143394200D02*
X96954371Y-143394200D01*
X97525800Y-143651342D02*
X97554371Y-143737057D01*
X97554371Y-143737057D02*
X97554371Y-143879914D01*
X97554371Y-143879914D02*
X97525800Y-143937057D01*
X97525800Y-143937057D02*
X97497228Y-143965628D01*
X97497228Y-143965628D02*
X97440085Y-143994199D01*
X97440085Y-143994199D02*
X97382942Y-143994199D01*
X97382942Y-143994199D02*
X97325800Y-143965628D01*
X97325800Y-143965628D02*
X97297228Y-143937057D01*
X97297228Y-143937057D02*
X97268657Y-143879914D01*
X97268657Y-143879914D02*
X97240085Y-143765628D01*
X97240085Y-143765628D02*
X97211514Y-143708485D01*
X97211514Y-143708485D02*
X97182942Y-143679914D01*
X97182942Y-143679914D02*
X97125800Y-143651342D01*
X97125800Y-143651342D02*
X97068657Y-143651342D01*
X97068657Y-143651342D02*
X97011514Y-143679914D01*
X97011514Y-143679914D02*
X96982942Y-143708485D01*
X96982942Y-143708485D02*
X96954371Y-143765628D01*
X96954371Y-143765628D02*
X96954371Y-143908485D01*
X96954371Y-143908485D02*
X96982942Y-143994199D01*
X97240085Y-144451343D02*
X97268657Y-144537057D01*
X97268657Y-144537057D02*
X97297228Y-144565628D01*
X97297228Y-144565628D02*
X97354371Y-144594200D01*
X97354371Y-144594200D02*
X97440085Y-144594200D01*
X97440085Y-144594200D02*
X97497228Y-144565628D01*
X97497228Y-144565628D02*
X97525800Y-144537057D01*
X97525800Y-144537057D02*
X97554371Y-144479914D01*
X97554371Y-144479914D02*
X97554371Y-144251343D01*
X97554371Y-144251343D02*
X96954371Y-144251343D01*
X96954371Y-144251343D02*
X96954371Y-144451343D01*
X96954371Y-144451343D02*
X96982942Y-144508486D01*
X96982942Y-144508486D02*
X97011514Y-144537057D01*
X97011514Y-144537057D02*
X97068657Y-144565628D01*
X97068657Y-144565628D02*
X97125800Y-144565628D01*
X97125800Y-144565628D02*
X97182942Y-144537057D01*
X97182942Y-144537057D02*
X97211514Y-144508486D01*
X97211514Y-144508486D02*
X97240085Y-144451343D01*
X97240085Y-144451343D02*
X97240085Y-144251343D01*
X97554371Y-145165628D02*
X97554371Y-144822771D01*
X97554371Y-144994200D02*
X96954371Y-144994200D01*
X96954371Y-144994200D02*
X97040085Y-144937057D01*
X97040085Y-144937057D02*
X97097228Y-144879914D01*
X97097228Y-144879914D02*
X97125800Y-144822771D01*
X106065685Y-142678828D02*
X105865685Y-142964542D01*
X105722828Y-142678828D02*
X105722828Y-143278828D01*
X105722828Y-143278828D02*
X105951399Y-143278828D01*
X105951399Y-143278828D02*
X106008542Y-143250257D01*
X106008542Y-143250257D02*
X106037113Y-143221685D01*
X106037113Y-143221685D02*
X106065685Y-143164542D01*
X106065685Y-143164542D02*
X106065685Y-143078828D01*
X106065685Y-143078828D02*
X106037113Y-143021685D01*
X106037113Y-143021685D02*
X106008542Y-142993114D01*
X106008542Y-142993114D02*
X105951399Y-142964542D01*
X105951399Y-142964542D02*
X105722828Y-142964542D01*
X106637113Y-142678828D02*
X106294256Y-142678828D01*
X106465685Y-142678828D02*
X106465685Y-143278828D01*
X106465685Y-143278828D02*
X106408542Y-143193114D01*
X106408542Y-143193114D02*
X106351399Y-143135971D01*
X106351399Y-143135971D02*
X106294256Y-143107400D01*
X107208542Y-142678828D02*
X106865685Y-142678828D01*
X107037114Y-142678828D02*
X107037114Y-143278828D01*
X107037114Y-143278828D02*
X106979971Y-143193114D01*
X106979971Y-143193114D02*
X106922828Y-143135971D01*
X106922828Y-143135971D02*
X106865685Y-143107400D01*
X113103000Y-151369771D02*
X113103000Y-151798342D01*
X113103000Y-151798342D02*
X113131571Y-151884057D01*
X113131571Y-151884057D02*
X113188714Y-151941200D01*
X113188714Y-151941200D02*
X113274428Y-151969771D01*
X113274428Y-151969771D02*
X113331571Y-151969771D01*
X112845857Y-151426914D02*
X112817285Y-151398342D01*
X112817285Y-151398342D02*
X112760143Y-151369771D01*
X112760143Y-151369771D02*
X112617285Y-151369771D01*
X112617285Y-151369771D02*
X112560143Y-151398342D01*
X112560143Y-151398342D02*
X112531571Y-151426914D01*
X112531571Y-151426914D02*
X112503000Y-151484057D01*
X112503000Y-151484057D02*
X112503000Y-151541200D01*
X112503000Y-151541200D02*
X112531571Y-151626914D01*
X112531571Y-151626914D02*
X112874428Y-151969771D01*
X112874428Y-151969771D02*
X112503000Y-151969771D01*
X98664656Y-153187971D02*
X98664656Y-152587971D01*
X98664656Y-152587971D02*
X98521799Y-152587971D01*
X98521799Y-152587971D02*
X98436085Y-152616542D01*
X98436085Y-152616542D02*
X98378942Y-152673685D01*
X98378942Y-152673685D02*
X98350371Y-152730828D01*
X98350371Y-152730828D02*
X98321799Y-152845114D01*
X98321799Y-152845114D02*
X98321799Y-152930828D01*
X98321799Y-152930828D02*
X98350371Y-153045114D01*
X98350371Y-153045114D02*
X98378942Y-153102257D01*
X98378942Y-153102257D02*
X98436085Y-153159400D01*
X98436085Y-153159400D02*
X98521799Y-153187971D01*
X98521799Y-153187971D02*
X98664656Y-153187971D01*
X97750371Y-153187971D02*
X98093228Y-153187971D01*
X97921799Y-153187971D02*
X97921799Y-152587971D01*
X97921799Y-152587971D02*
X97978942Y-152673685D01*
X97978942Y-152673685D02*
X98036085Y-152730828D01*
X98036085Y-152730828D02*
X98093228Y-152759400D01*
X111120285Y-133845971D02*
X111091713Y-133817400D01*
X111091713Y-133817400D02*
X111005999Y-133788828D01*
X111005999Y-133788828D02*
X110948856Y-133788828D01*
X110948856Y-133788828D02*
X110863142Y-133817400D01*
X110863142Y-133817400D02*
X110805999Y-133874542D01*
X110805999Y-133874542D02*
X110777428Y-133931685D01*
X110777428Y-133931685D02*
X110748856Y-134045971D01*
X110748856Y-134045971D02*
X110748856Y-134131685D01*
X110748856Y-134131685D02*
X110777428Y-134245971D01*
X110777428Y-134245971D02*
X110805999Y-134303114D01*
X110805999Y-134303114D02*
X110863142Y-134360257D01*
X110863142Y-134360257D02*
X110948856Y-134388828D01*
X110948856Y-134388828D02*
X111005999Y-134388828D01*
X111005999Y-134388828D02*
X111091713Y-134360257D01*
X111091713Y-134360257D02*
X111120285Y-134331685D01*
X111691713Y-133788828D02*
X111348856Y-133788828D01*
X111520285Y-133788828D02*
X111520285Y-134388828D01*
X111520285Y-134388828D02*
X111463142Y-134303114D01*
X111463142Y-134303114D02*
X111405999Y-134245971D01*
X111405999Y-134245971D02*
X111348856Y-134217400D01*
X111891714Y-134388828D02*
X112263142Y-134388828D01*
X112263142Y-134388828D02*
X112063142Y-134160257D01*
X112063142Y-134160257D02*
X112148857Y-134160257D01*
X112148857Y-134160257D02*
X112206000Y-134131685D01*
X112206000Y-134131685D02*
X112234571Y-134103114D01*
X112234571Y-134103114D02*
X112263142Y-134045971D01*
X112263142Y-134045971D02*
X112263142Y-133903114D01*
X112263142Y-133903114D02*
X112234571Y-133845971D01*
X112234571Y-133845971D02*
X112206000Y-133817400D01*
X112206000Y-133817400D02*
X112148857Y-133788828D01*
X112148857Y-133788828D02*
X111977428Y-133788828D01*
X111977428Y-133788828D02*
X111920285Y-133817400D01*
X111920285Y-133817400D02*
X111891714Y-133845971D01*
X113239942Y-135790971D02*
X113239942Y-136276685D01*
X113239942Y-136276685D02*
X113211371Y-136333828D01*
X113211371Y-136333828D02*
X113182800Y-136362400D01*
X113182800Y-136362400D02*
X113125657Y-136390971D01*
X113125657Y-136390971D02*
X113011371Y-136390971D01*
X113011371Y-136390971D02*
X112954228Y-136362400D01*
X112954228Y-136362400D02*
X112925657Y-136333828D01*
X112925657Y-136333828D02*
X112897085Y-136276685D01*
X112897085Y-136276685D02*
X112897085Y-135790971D01*
X112354229Y-135990971D02*
X112354229Y-136390971D01*
X112497086Y-135762400D02*
X112639943Y-136190971D01*
X112639943Y-136190971D02*
X112268514Y-136190971D01*
X100299885Y-157512428D02*
X100099885Y-157798142D01*
X99957028Y-157512428D02*
X99957028Y-158112428D01*
X99957028Y-158112428D02*
X100185599Y-158112428D01*
X100185599Y-158112428D02*
X100242742Y-158083857D01*
X100242742Y-158083857D02*
X100271313Y-158055285D01*
X100271313Y-158055285D02*
X100299885Y-157998142D01*
X100299885Y-157998142D02*
X100299885Y-157912428D01*
X100299885Y-157912428D02*
X100271313Y-157855285D01*
X100271313Y-157855285D02*
X100242742Y-157826714D01*
X100242742Y-157826714D02*
X100185599Y-157798142D01*
X100185599Y-157798142D02*
X99957028Y-157798142D01*
X100528456Y-158055285D02*
X100557028Y-158083857D01*
X100557028Y-158083857D02*
X100614171Y-158112428D01*
X100614171Y-158112428D02*
X100757028Y-158112428D01*
X100757028Y-158112428D02*
X100814171Y-158083857D01*
X100814171Y-158083857D02*
X100842742Y-158055285D01*
X100842742Y-158055285D02*
X100871313Y-157998142D01*
X100871313Y-157998142D02*
X100871313Y-157941000D01*
X100871313Y-157941000D02*
X100842742Y-157855285D01*
X100842742Y-157855285D02*
X100499885Y-157512428D01*
X100499885Y-157512428D02*
X100871313Y-157512428D01*
X101442742Y-157512428D02*
X101099885Y-157512428D01*
X101271314Y-157512428D02*
X101271314Y-158112428D01*
X101271314Y-158112428D02*
X101214171Y-158026714D01*
X101214171Y-158026714D02*
X101157028Y-157969571D01*
X101157028Y-157969571D02*
X101099885Y-157941000D01*
X145560371Y-148136400D02*
X145274657Y-147936400D01*
X145560371Y-147793543D02*
X144960371Y-147793543D01*
X144960371Y-147793543D02*
X144960371Y-148022114D01*
X144960371Y-148022114D02*
X144988942Y-148079257D01*
X144988942Y-148079257D02*
X145017514Y-148107828D01*
X145017514Y-148107828D02*
X145074657Y-148136400D01*
X145074657Y-148136400D02*
X145160371Y-148136400D01*
X145160371Y-148136400D02*
X145217514Y-148107828D01*
X145217514Y-148107828D02*
X145246085Y-148079257D01*
X145246085Y-148079257D02*
X145274657Y-148022114D01*
X145274657Y-148022114D02*
X145274657Y-147793543D01*
X144960371Y-148336400D02*
X144960371Y-148736400D01*
X144960371Y-148736400D02*
X145560371Y-148479257D01*
X117268600Y-151445971D02*
X117268600Y-151874542D01*
X117268600Y-151874542D02*
X117297171Y-151960257D01*
X117297171Y-151960257D02*
X117354314Y-152017400D01*
X117354314Y-152017400D02*
X117440028Y-152045971D01*
X117440028Y-152045971D02*
X117497171Y-152045971D01*
X116668600Y-152045971D02*
X117011457Y-152045971D01*
X116840028Y-152045971D02*
X116840028Y-151445971D01*
X116840028Y-151445971D02*
X116897171Y-151531685D01*
X116897171Y-151531685D02*
X116954314Y-151588828D01*
X116954314Y-151588828D02*
X117011457Y-151617400D01*
X107208685Y-129445428D02*
X107008685Y-129731142D01*
X106865828Y-129445428D02*
X106865828Y-130045428D01*
X106865828Y-130045428D02*
X107094399Y-130045428D01*
X107094399Y-130045428D02*
X107151542Y-130016857D01*
X107151542Y-130016857D02*
X107180113Y-129988285D01*
X107180113Y-129988285D02*
X107208685Y-129931142D01*
X107208685Y-129931142D02*
X107208685Y-129845428D01*
X107208685Y-129845428D02*
X107180113Y-129788285D01*
X107180113Y-129788285D02*
X107151542Y-129759714D01*
X107151542Y-129759714D02*
X107094399Y-129731142D01*
X107094399Y-129731142D02*
X106865828Y-129731142D01*
X107780113Y-129445428D02*
X107437256Y-129445428D01*
X107608685Y-129445428D02*
X107608685Y-130045428D01*
X107608685Y-130045428D02*
X107551542Y-129959714D01*
X107551542Y-129959714D02*
X107494399Y-129902571D01*
X107494399Y-129902571D02*
X107437256Y-129874000D01*
X108294400Y-130045428D02*
X108180114Y-130045428D01*
X108180114Y-130045428D02*
X108122971Y-130016857D01*
X108122971Y-130016857D02*
X108094400Y-129988285D01*
X108094400Y-129988285D02*
X108037257Y-129902571D01*
X108037257Y-129902571D02*
X108008685Y-129788285D01*
X108008685Y-129788285D02*
X108008685Y-129559714D01*
X108008685Y-129559714D02*
X108037257Y-129502571D01*
X108037257Y-129502571D02*
X108065828Y-129474000D01*
X108065828Y-129474000D02*
X108122971Y-129445428D01*
X108122971Y-129445428D02*
X108237257Y-129445428D01*
X108237257Y-129445428D02*
X108294400Y-129474000D01*
X108294400Y-129474000D02*
X108322971Y-129502571D01*
X108322971Y-129502571D02*
X108351542Y-129559714D01*
X108351542Y-129559714D02*
X108351542Y-129702571D01*
X108351542Y-129702571D02*
X108322971Y-129759714D01*
X108322971Y-129759714D02*
X108294400Y-129788285D01*
X108294400Y-129788285D02*
X108237257Y-129816857D01*
X108237257Y-129816857D02*
X108122971Y-129816857D01*
X108122971Y-129816857D02*
X108065828Y-129788285D01*
X108065828Y-129788285D02*
X108037257Y-129759714D01*
X108037257Y-129759714D02*
X108008685Y-129702571D01*
X145362800Y-130521200D02*
X145277086Y-130549771D01*
X145277086Y-130549771D02*
X145134228Y-130549771D01*
X145134228Y-130549771D02*
X145077086Y-130521200D01*
X145077086Y-130521200D02*
X145048514Y-130492628D01*
X145048514Y-130492628D02*
X145019943Y-130435485D01*
X145019943Y-130435485D02*
X145019943Y-130378342D01*
X145019943Y-130378342D02*
X145048514Y-130321200D01*
X145048514Y-130321200D02*
X145077086Y-130292628D01*
X145077086Y-130292628D02*
X145134228Y-130264057D01*
X145134228Y-130264057D02*
X145248514Y-130235485D01*
X145248514Y-130235485D02*
X145305657Y-130206914D01*
X145305657Y-130206914D02*
X145334228Y-130178342D01*
X145334228Y-130178342D02*
X145362800Y-130121200D01*
X145362800Y-130121200D02*
X145362800Y-130064057D01*
X145362800Y-130064057D02*
X145334228Y-130006914D01*
X145334228Y-130006914D02*
X145305657Y-129978342D01*
X145305657Y-129978342D02*
X145248514Y-129949771D01*
X145248514Y-129949771D02*
X145105657Y-129949771D01*
X145105657Y-129949771D02*
X145019943Y-129978342D01*
X144819942Y-129949771D02*
X144677085Y-130549771D01*
X144677085Y-130549771D02*
X144562799Y-130121200D01*
X144562799Y-130121200D02*
X144448514Y-130549771D01*
X144448514Y-130549771D02*
X144305657Y-129949771D01*
X143762800Y-130549771D02*
X144105657Y-130549771D01*
X143934228Y-130549771D02*
X143934228Y-129949771D01*
X143934228Y-129949771D02*
X143991371Y-130035485D01*
X143991371Y-130035485D02*
X144048514Y-130092628D01*
X144048514Y-130092628D02*
X144105657Y-130121200D01*
X98537556Y-157785371D02*
X98537556Y-157185371D01*
X98537556Y-157185371D02*
X98394699Y-157185371D01*
X98394699Y-157185371D02*
X98308985Y-157213942D01*
X98308985Y-157213942D02*
X98251842Y-157271085D01*
X98251842Y-157271085D02*
X98223271Y-157328228D01*
X98223271Y-157328228D02*
X98194699Y-157442514D01*
X98194699Y-157442514D02*
X98194699Y-157528228D01*
X98194699Y-157528228D02*
X98223271Y-157642514D01*
X98223271Y-157642514D02*
X98251842Y-157699657D01*
X98251842Y-157699657D02*
X98308985Y-157756800D01*
X98308985Y-157756800D02*
X98394699Y-157785371D01*
X98394699Y-157785371D02*
X98537556Y-157785371D01*
X97966128Y-157242514D02*
X97937556Y-157213942D01*
X97937556Y-157213942D02*
X97880414Y-157185371D01*
X97880414Y-157185371D02*
X97737556Y-157185371D01*
X97737556Y-157185371D02*
X97680414Y-157213942D01*
X97680414Y-157213942D02*
X97651842Y-157242514D01*
X97651842Y-157242514D02*
X97623271Y-157299657D01*
X97623271Y-157299657D02*
X97623271Y-157356800D01*
X97623271Y-157356800D02*
X97651842Y-157442514D01*
X97651842Y-157442514D02*
X97994699Y-157785371D01*
X97994699Y-157785371D02*
X97623271Y-157785371D01*
%TO.C,S6*%
X97851400Y-135290400D02*
X102351400Y-135290400D01*
X97851400Y-130190400D02*
X102351400Y-130190400D01*
X104451400Y-130865400D02*
G75*
G03*
X104451400Y-130865400I-100000J0D01*
G01*
X102651400Y-131560400D02*
X102651400Y-133920400D01*
X97551400Y-133920400D02*
X97551400Y-131560400D01*
%TO.C,S3*%
X137297600Y-156220000D02*
X141797600Y-156220000D01*
X137297600Y-151120000D02*
X141797600Y-151120000D01*
X143897600Y-151795000D02*
G75*
G03*
X143897600Y-151795000I-100000J0D01*
G01*
X142097600Y-152490000D02*
X142097600Y-154850000D01*
X136997600Y-154850000D02*
X136997600Y-152490000D01*
%TO.C,S2*%
X146619400Y-156321600D02*
X151119400Y-156321600D01*
X146619400Y-151221600D02*
X151119400Y-151221600D01*
X153219400Y-151896600D02*
G75*
G03*
X153219400Y-151896600I-100000J0D01*
G01*
X151419400Y-152591600D02*
X151419400Y-154951600D01*
X146319400Y-154951600D02*
X146319400Y-152591600D01*
%TO.C,TP5*%
X108802400Y-141960600D02*
G75*
G03*
X108802400Y-141960600I-700000J0D01*
G01*
%TO.C,TP4*%
X106389400Y-140004800D02*
G75*
G03*
X106389400Y-140004800I-700000J0D01*
G01*
%TO.C,TP3*%
X106389400Y-136254800D02*
G75*
G03*
X106389400Y-136254800I-700000J0D01*
G01*
%TO.C,R13*%
X104446041Y-143714200D02*
X104138759Y-143714200D01*
X104446041Y-144474200D02*
X104138759Y-144474200D01*
%TO.C,R3*%
X104087959Y-142213600D02*
X104395241Y-142213600D01*
X104087959Y-141453600D02*
X104395241Y-141453600D01*
%TO.C,R1*%
X104138759Y-145515600D02*
X104446041Y-145515600D01*
X104138759Y-144755600D02*
X104446041Y-144755600D01*
%TO.C,USB1*%
X98523900Y-148238600D02*
X100513900Y-148238600D01*
X94943900Y-148238600D02*
X96563900Y-148238600D01*
X94943900Y-139238600D02*
X94943900Y-148238600D01*
X98523900Y-139168600D02*
X100513900Y-139168600D01*
X95093900Y-139168600D02*
X96563900Y-139168600D01*
%TO.C,R11*%
X104446041Y-142672800D02*
X104138759Y-142672800D01*
X104446041Y-143432800D02*
X104138759Y-143432800D01*
%TO.C,J2*%
X114103000Y-154895400D02*
X114103000Y-152495400D01*
X114103000Y-152495400D02*
X111703000Y-152495400D01*
X111703000Y-154895400D02*
X114103000Y-154895400D01*
X111703000Y-152495400D02*
X111703000Y-154895400D01*
%TO.C,D1*%
X96736800Y-150750600D02*
X99021800Y-150750600D01*
X96736800Y-152220600D02*
X96736800Y-150750600D01*
X99021800Y-152220600D02*
X96736800Y-152220600D01*
%TO.C,C13*%
X109112164Y-133650400D02*
X109327836Y-133650400D01*
X109112164Y-134370400D02*
X109327836Y-134370400D01*
%TO.C,U4*%
X115475600Y-140418400D02*
X115475600Y-140158400D01*
X115475600Y-135228400D02*
X117150600Y-135228400D01*
X115475600Y-134968400D02*
X115475600Y-135228400D01*
X112750600Y-140418400D02*
X115475600Y-140418400D01*
X112750600Y-140418400D02*
X110025600Y-140418400D01*
X112750600Y-134968400D02*
X115475600Y-134968400D01*
X112750600Y-134968400D02*
X110025600Y-134968400D01*
X110025600Y-140418400D02*
X110025600Y-140158400D01*
X110025600Y-134968400D02*
X110025600Y-135228400D01*
%TO.C,R21*%
X100862400Y-155649959D02*
X100862400Y-155957241D01*
X100102400Y-155649959D02*
X100102400Y-155957241D01*
%TO.C,R7*%
X145490200Y-149809959D02*
X145490200Y-150117241D01*
X144730200Y-149809959D02*
X144730200Y-150117241D01*
%TO.C,J1*%
X118268600Y-154971600D02*
X118268600Y-152571600D01*
X118268600Y-152571600D02*
X115868600Y-152571600D01*
X115868600Y-154971600D02*
X118268600Y-154971600D01*
X115868600Y-152571600D02*
X115868600Y-154971600D01*
%TO.C,R16*%
X105408759Y-129160000D02*
X105716041Y-129160000D01*
X105408759Y-129920000D02*
X105716041Y-129920000D01*
%TO.C,SW1*%
X151638000Y-129465800D02*
X151638000Y-129325800D01*
X151638000Y-129325800D02*
X147038000Y-129325800D01*
X150338000Y-128125800D02*
X150338000Y-129325800D01*
X150338000Y-128125800D02*
X148338000Y-128125800D01*
X150228000Y-131625800D02*
X148448000Y-131625800D01*
X148338000Y-128125800D02*
X148338000Y-129325800D01*
X147038000Y-129325800D02*
X147038000Y-129465800D01*
%TO.C,D2*%
X96609700Y-155348000D02*
X98894700Y-155348000D01*
X96609700Y-156818000D02*
X96609700Y-155348000D01*
X98894700Y-156818000D02*
X96609700Y-156818000D01*
%TD*%
%LPC*%
D11*
%TO.C,S6*%
X103101400Y-130865400D03*
X97101400Y-130865400D03*
X103101400Y-134615400D03*
X97101400Y-134615400D03*
%TD*%
%TO.C,S3*%
X142547600Y-151795000D03*
X136547600Y-151795000D03*
X142547600Y-155545000D03*
X136547600Y-155545000D03*
%TD*%
%TO.C,S2*%
X151869400Y-151896600D03*
X145869400Y-151896600D03*
X151869400Y-155646600D03*
X145869400Y-155646600D03*
%TD*%
D12*
%TO.C,TP5*%
X108102400Y-141960600D03*
%TD*%
%TO.C,TP4*%
X105689400Y-140004800D03*
%TD*%
%TO.C,TP3*%
X105689400Y-136254800D03*
%TD*%
D13*
%TO.C,R13*%
X104802400Y-144094200D03*
X103782400Y-144094200D03*
%TD*%
D14*
%TO.C,R3*%
X103731600Y-141833600D03*
X104751600Y-141833600D03*
%TD*%
%TO.C,R1*%
X103782400Y-145135600D03*
X104802400Y-145135600D03*
%TD*%
D15*
%TO.C,USB1*%
X101213900Y-146628600D03*
X101213900Y-140848600D03*
D16*
X102293900Y-146938600D03*
X102293900Y-146138600D03*
D17*
X102293900Y-145488600D03*
X102293900Y-144988600D03*
X102293900Y-144488600D03*
X102293900Y-143988600D03*
X102293900Y-143488600D03*
X102293900Y-142988600D03*
X102293900Y-142488600D03*
X102293900Y-141988600D03*
D16*
X102293900Y-141338600D03*
X102293900Y-140538600D03*
D18*
X101743900Y-148058600D03*
D19*
X97533900Y-148058600D03*
D18*
X101743900Y-139418600D03*
D19*
X97533900Y-139418600D03*
%TD*%
D13*
%TO.C,R11*%
X104802400Y-143052800D03*
X103782400Y-143052800D03*
%TD*%
D20*
%TO.C,J2*%
X112903000Y-153695400D03*
%TD*%
D21*
%TO.C,D1*%
X97434300Y-151485600D03*
X99009300Y-151485600D03*
%TD*%
D22*
%TO.C,C13*%
X108740000Y-134010400D03*
X109700000Y-134010400D03*
%TD*%
D23*
%TO.C,U4*%
X116350600Y-135788400D03*
X116350600Y-137058400D03*
X116350600Y-138328400D03*
X116350600Y-139598400D03*
X109150600Y-139598400D03*
X109150600Y-138328400D03*
X109150600Y-137058400D03*
X109150600Y-135788400D03*
%TD*%
D24*
%TO.C,R21*%
X100482400Y-155293600D03*
X100482400Y-156313600D03*
%TD*%
%TO.C,R7*%
X145110200Y-149453600D03*
X145110200Y-150473600D03*
%TD*%
D20*
%TO.C,J1*%
X117068600Y-153771600D03*
%TD*%
D14*
%TO.C,R16*%
X105052400Y-129540000D03*
X106072400Y-129540000D03*
%TD*%
D15*
%TO.C,SW1*%
X150188000Y-130225800D03*
X148488000Y-130225800D03*
D25*
X151638000Y-130225800D03*
X147038000Y-130225800D03*
D26*
X151008000Y-131765800D03*
X147658000Y-131765800D03*
%TD*%
D21*
%TO.C,D2*%
X97307200Y-156083000D03*
X98882200Y-156083000D03*
%TD*%
%LPD*%
M02*
